# xmcd
#
# Track frame offsets: 
#        150
#        29516
#        62966
#        97966
#        128101
#        157173
#        192222
#        219407
#        246062
#        281789
#        315632
#
# Disc length: 4758 seconds
#
# Revision: 0
# Processed by: cddbd v1.5.2PL0 Copyright (c) Steve Scherf et al.
# Submitted via: ExactAudioCopy v1.3
#
DISCID=a112940b
DTITLE=Various Artist - Blues - Golden Age '60s -'70s  vol.09  CD1
DYEAR=2018
DGENRE=Rock
TTITLE0=The Bugs Henderson Group - 1978 - Takes My Breath Away
TTITLE1=Livin' Blues - 1972 - Black Night
TTITLE2=Peter Green - 1978 - A Fool No More
TTITLE3=Wings - 1971 - Wild Life
TTITLE4=John Morgan - 1971 - Evil City
TTITLE5=The Beatles - 1969 - I Want You (She's So Heavy)
TTITLE6=Johnny and Edgar Winter - 1976 - Rock and Roll Medley
TTITLE7=Rory Gallagher (1975) - All Around Man
TTITLE8=Jimi Hendrix and Lonnie Youngblood - 1969 - Georgia Blues
TTITLE9=Robin Trower - 1974 - Too Rolling Stoned
TTITLE10=Nazareth (1973) - The Ballad Of Hollis Brown
EXTD=
EXTT0=
EXTT1=
EXTT2=
EXTT3=
EXTT4=
EXTT5=
EXTT6=
EXTT7=
EXTT8=
EXTT9=
EXTT10=
PLAYORDER=
